<?xml version="1.0" encoding="iso-8859-1"?>
<!-- Generator: Adobe Illustrator 19.0.0, SVG Export Plug-In . SVG Version: 6.00 Build 0)  -->
<svg version="1.1" id="Layer_1" xmlns="http://www.w3.org/2000/svg" xmlns:xlink="http://www.w3.org/1999/xlink" x="0px" y="0px"
	 viewBox="0 0 105.841 105.841" style="enable-background:new 0 0 105.841 105.841;" xml:space="preserve">
<g>
	<rect x="3.682" y="85.82" style="fill:#131112;" width="97.765" height="7.405"/>
	<rect y="91.335" style="fill:#232323;" width="105.841" height="7.404"/>
	<g>
		<rect x="9.583" y="37.762" style="fill:#EF4F28;" width="7.554" height="48.058"/>
		<rect x="35.441" y="37.762" style="fill:#EF4F28;" width="7.555" height="48.058"/>
		<rect x="61.3" y="37.762" style="fill:#EF4F28;" width="7.554" height="48.058"/>
		<rect x="87.158" y="37.762" style="fill:#EF4F28;" width="7.555" height="48.058"/>
	</g>
	<g>
		<rect x="85.6" y="80.447" style="fill:#DD3D12;" width="10.671" height="5.373"/>
		<rect x="59.742" y="80.447" style="fill:#DD3D12;" width="10.671" height="5.373"/>
		<rect x="33.883" y="80.447" style="fill:#DD3D12;" width="10.671" height="5.373"/>
		<rect x="8.024" y="80.447" style="fill:#DD3D12;" width="10.671" height="5.373"/>
	</g>
	<g>
		<rect x="85.6" y="37.998" style="fill:#DD3D12;" width="10.671" height="3.956"/>
		<rect x="59.742" y="37.998" style="fill:#DD3D12;" width="10.671" height="3.956"/>
		<rect x="33.883" y="37.998" style="fill:#DD3D12;" width="10.671" height="3.956"/>
		<rect x="8.024" y="37.998" style="fill:#DD3D12;" width="10.671" height="3.956"/>
	</g>
	<polygon style="fill:#EF4F28;" points="5.411,35.584 52.202,7.102 98.993,35.584 	"/>
	<rect x="5.411" y="35.584" style="fill:#DD3D12;" width="93.583" height="4.392"/>
</g>
<g>
</g>
<g>
</g>
<g>
</g>
<g>
</g>
<g>
</g>
<g>
</g>
<g>
</g>
<g>
</g>
<g>
</g>
<g>
</g>
<g>
</g>
<g>
</g>
<g>
</g>
<g>
</g>
<g>
</g>
</svg>
